<?xml version="1.0" encoding="iso-8859-1"?>
<!-- Generator: Adobe Illustrator 19.0.0, SVG Export Plug-In . SVG Version: 6.00 Build 0)  -->
<svg version="1.1" id="Layer_1" xmlns="http://www.w3.org/2000/svg" xmlns:xlink="http://www.w3.org/1999/xlink" x="0px" y="0px"
	 viewBox="0 0 512 512" style="enable-background:new 0 0 512 512;" xml:space="preserve">
<g>
	<g>
		<g>
			<path d="M496.064,0.881c-4.319-1.79-9.29-0.799-12.596,2.505L372.955,113.898C337.149,97.432,296.933,88.768,256,88.768
				s-81.149,8.665-116.955,25.131L28.531,3.385c-3.307-3.304-8.277-4.295-12.596-2.505C11.616,2.67,8.8,6.884,8.8,11.559v288.825
				c0,56.887,25.959,110.255,73.096,150.274C128.49,490.215,190.321,512,256,512s127.511-21.786,174.104-61.342
				c47.136-40.019,73.096-93.386,73.096-150.274V11.559C503.2,6.884,500.383,2.67,496.064,0.881z M256.001,488.884
				c-123.559,0-224.085-84.561-224.085-188.5V39.463l86.348,86.347c-12.853,8.348-23.937,17.819-33.083,28.322
				c-4.192,4.814-3.687,12.115,1.126,16.307c2.19,1.907,4.894,2.841,7.586,2.841c3.227,0,6.415-1.363,8.722-3.968
				c19.504-22.017,46.913-34.581,48.32-35.395c32.23-14.427,68.299-22.033,105.065-22.033c38.278,0,75.813,8.221,109.032,23.826
				c0.522,0.399,33.999,17.462,44.353,33.603c1.879,2.929,5.495,3.968,8.722,3.968c2.692,0,5.395-0.935,7.586-2.841
				c4.814-4.192,5.318-11.493,1.126-16.307c-9.123-10.476-20.215-19.954-33.087-28.317l86.353-86.353v260.923h0
				C480.083,404.324,379.56,488.884,256.001,488.884z"/>
			<path d="M362.612,349.017c-6.384,0-11.558,5.175-11.558,11.558l-0.002,0.34c-0.087,6.382,5.017,11.627,11.4,11.714
				c0.054,0,0.107,0.001,0.161,0.001c6.31,0,11.468-5.072,11.553-11.401l0.005-0.654
				C374.17,354.192,368.995,349.017,362.612,349.017z"/>
			<path d="M175.934,262.437c0,6.383,5.175,11.558,11.558,11.558s11.558-5.175,11.558-11.558c0-28.231-22.278-51.198-49.662-51.198
				s-49.662,22.967-49.662,51.198c0,6.383,5.175,11.558,11.558,11.558c6.383,0,11.558-5.175,11.558-11.558
				c0-15.484,11.908-28.082,26.545-28.082S175.934,246.952,175.934,262.437z"/>
			<path d="M362.612,211.239c-27.383,0-49.662,22.967-49.662,51.198c0,6.383,5.175,11.558,11.558,11.558s11.558-5.175,11.558-11.558
				c0-15.484,11.908-28.082,26.545-28.082s26.545,12.597,26.545,28.082c0,6.383,5.175,11.558,11.558,11.558
				s11.558-5.175,11.558-11.558C412.275,234.206,389.996,211.239,362.612,211.239z"/>
			<path d="M333.106,384.394c-7.03,3.472-15.259,5.306-23.8,5.306c-14.162,0-26.943-5.227-34.526-13.006
				c15.789-6.1,26.804-19.633,26.804-35.32c0-21.382-20.449-38.779-45.583-38.779s-45.583,17.396-45.583,38.779
				c0,15.688,11.014,29.22,26.804,35.32c-7.583,7.78-20.364,13.006-34.526,13.006c-22.63,0-41.748-13.338-41.748-29.125
				c0-6.384-5.175-11.558-11.558-11.558c-6.383,0-11.558,5.175-11.558,11.558c0,28.806,29.097,52.241,64.864,52.241
				c22.076,0,41.591-8.938,53.306-22.549c11.715,13.611,31.23,22.549,53.306,22.549c12.071,0,23.841-2.662,34.036-7.697
				c5.724-2.827,8.071-9.757,5.245-15.482C345.761,383.916,338.83,381.568,333.106,384.394z M256,357.037
				c-12.178,0-22.467-7.173-22.467-15.662c0-8.489,10.288-15.662,22.467-15.662s22.467,7.173,22.467,15.662
				C278.467,349.864,268.178,357.037,256,357.037z"/>
		</g>
	</g>
</g>
<g>
</g>
<g>
</g>
<g>
</g>
<g>
</g>
<g>
</g>
<g>
</g>
<g>
</g>
<g>
</g>
<g>
</g>
<g>
</g>
<g>
</g>
<g>
</g>
<g>
</g>
<g>
</g>
<g>
</g>
</svg>
