<?xml version="1.0" encoding="iso-8859-1"?>
<!-- Generator: Adobe Illustrator 18.0.0, SVG Export Plug-In . SVG Version: 6.00 Build 0)  -->
<!DOCTYPE svg PUBLIC "-//W3C//DTD SVG 1.1//EN" "http://www.w3.org/Graphics/SVG/1.1/DTD/svg11.dtd">
<svg version="1.1" id="Capa_1" xmlns="http://www.w3.org/2000/svg" xmlns:xlink="http://www.w3.org/1999/xlink" x="0px" y="0px"
	 viewBox="0 0 59.882 59.882" style="enable-background:new 0 0 59.882 59.882;" xml:space="preserve">
<g>
	<path d="M52.045,26.18l-0.352-0.082l0.246-0.263c0.921-0.988,0.868-2.542-0.119-3.466l-0.802-0.748
		c-0.479-0.446-1.104-0.686-1.757-0.657c-0.655,0.022-1.262,0.298-1.709,0.776l-2.439,2.614c-1.469-2.093-3.421-4.004-6.088-5.634
		c0.96-0.171,1.739-0.377,2.409-0.759h5.506c2.206,0,4-1.794,4-4s-1.794-4-4-4h-5.999c-0.721-0.343-1.583-0.515-2.763-0.528
		c-0.207-0.002-0.394-0.141-0.463-0.346c-0.162-0.471-0.347-0.932-0.554-1.377l0.921-0.921c1.56-1.56,1.56-4.097,0-5.656
		c-1.511-1.511-4.145-1.513-5.657,0l-1.079,1.079c-2.013-0.593-4.131-0.275-6.029,0.915c-0.161,0.103-0.398,0.04-0.53-0.134
		c-0.481-0.643-1.063-1.363-1.875-1.776c-1.179-0.598-2.931-0.039-3.799,0.551c-0.793,0.54-0.809,1.708-0.589,3.297
		c0.08,0.579,0.27,1.172,0.452,1.746c0.114,0.359,0.282,0.888,0.35,1.24l0.005,0.226c0.002,0.066-0.001,0.103,0.002,0.112
		c-0.022,0.031-0.057,0.061-0.086,0.092c-0.032,0.033-0.059,0.067-0.1,0.099c-0.038,0.031-0.087,0.059-0.132,0.089
		c-0.049,0.032-0.093,0.065-0.149,0.096c-0.052,0.029-0.113,0.055-0.171,0.082c-0.06,0.029-0.116,0.058-0.181,0.085
		c-0.068,0.028-0.142,0.052-0.215,0.078c-0.063,0.022-0.123,0.047-0.19,0.067c-0.085,0.026-0.176,0.048-0.265,0.071
		c-0.059,0.015-0.116,0.033-0.176,0.046c-0.104,0.023-0.209,0.04-0.315,0.057c-0.048,0.008-0.096,0.019-0.145,0.026
		C17.09,9.293,16.97,9.302,16.85,9.31c-0.033,0.002-0.067,0.008-0.099,0.009c-0.152,0.007-0.301,0.006-0.444-0.004
		c-0.229-0.014-0.449-0.022-0.662-0.02l-4.742-4.742C9.975,3.627,8.358,3.629,7.435,4.553L6.658,5.329
		c-0.956,0.956-0.956,2.511,0,3.467l4.828,4.827c-0.006,0.103-0.011,0.207-0.014,0.316c-0.073,3.128-0.148,6.363-1.19,9.102
		c-0.191,0.502-0.37,1.018-0.542,1.55c-0.146,0.443-0.275,0.883-0.399,1.322c-0.014,0.05-0.03,0.095-0.044,0.145l-0.087,0.312
		c-0.038,0.142-0.084,0.286-0.12,0.428l-0.252,0.904l0.055-0.013c-1.791,8.142,0.227,15.418,6.06,21.676
		c6.581,7.06,15.168,10.519,26.168,10.519c1.27,0,2.573-0.046,3.908-0.138c3.628-0.251,5.834-2.583,5.902-6.238
		c0.049-2.648-0.128-5.515-0.525-8.517v-0.001c-0.158-1.196-0.293-2.404-0.428-3.614c-0.371-3.326-0.754-6.693-1.63-9.894
		l2.335,0.543c0.186,0.044,0.374,0.065,0.561,0.065c0.452,0,0.896-0.127,1.29-0.371c0.556-0.347,0.943-0.889,1.092-1.526
		l0.249-1.068C54.183,27.808,53.362,26.487,52.045,26.18z M39.941,11.962h3.556c-0.344,0.591-0.556,1.268-0.556,2
		s0.212,1.409,0.556,2h-3.556c-1.103,0-2-0.897-2-2S38.838,11.962,39.941,11.962z M48.941,13.962c0,1.103-0.897,2-2,2s-2-0.897-2-2
		s0.897-2,2-2S48.941,12.859,48.941,13.962z M8.073,7.382C8.019,7.328,7.99,7.27,7.97,7.216c-0.018-0.049-0.03-0.101-0.03-0.153
		l0-0.001c0-0.052,0.012-0.104,0.03-0.154C7.99,6.855,8.019,6.798,8.073,6.744L8.85,5.967c0.114-0.114,0.248-0.132,0.318-0.132
		c0.069,0,0.204,0.018,0.319,0.133l5.369,5.369l0.451-0.029c0.264-0.018,0.555-0.018,0.875,0.004
		c0.169,0.01,0.352,0.012,0.545,0.006c0.115-0.004,0.239-0.016,0.36-0.026c0.083-0.007,0.162-0.011,0.248-0.021
		c0.125-0.015,0.252-0.037,0.38-0.059c0.091-0.015,0.18-0.028,0.272-0.047c0.121-0.024,0.24-0.056,0.361-0.087
		c0.102-0.026,0.204-0.051,0.305-0.082c0.112-0.034,0.221-0.073,0.331-0.112c0.109-0.039,0.216-0.079,0.322-0.124
		c0.1-0.042,0.197-0.088,0.294-0.135c0.109-0.053,0.214-0.11,0.316-0.17c0.087-0.051,0.171-0.104,0.252-0.16
		c0.1-0.068,0.193-0.141,0.284-0.217c0.073-0.061,0.143-0.121,0.209-0.187c0.03-0.03,0.067-0.055,0.096-0.086
		c1.679,1.364,3.095,3.335,2.236,5.831c-0.973,2.828-6.151,7.303-11.216,9.177c0.122-0.353,0.237-0.704,0.373-1.062
		c1.164-3.06,1.247-6.622,1.321-9.767c0.005-0.234,0.024-0.441,0.044-0.649l0.043-0.468L8.073,7.382z M47.992,41.596
		c0.136,1.224,0.272,2.445,0.433,3.655c0.385,2.904,0.556,5.669,0.508,8.218c-0.048,2.583-1.482,4.104-4.039,4.279
		C32.629,58.596,23.322,55.405,16.417,48c-5.659-6.07-7.424-12.922-5.354-20.862c5.725-1.619,12.445-6.847,13.823-10.851
		c1.082-3.144-0.202-6.177-3.606-8.588c-0.083-0.489-0.239-0.995-0.398-1.495c-0.157-0.493-0.319-1.004-0.377-1.413
		c-0.121-0.879-0.111-1.293-0.09-1.477c0.574-0.311,1.365-0.426,1.591-0.313c0.429,0.218,0.834,0.729,1.182,1.193
		c0.752,1.001,2.153,1.28,3.192,0.628c1.568-0.982,3.251-1.167,4.867-0.531l0.61,0.24l1.982-1.983c0.779-0.781,2.05-0.779,2.829,0
		s0.779,2.049,0,2.828l-1.952,1.952l0.348,0.653c0.294,0.553,0.55,1.144,0.759,1.754c0.218,0.639,0.678,1.147,1.254,1.437
		c-0.087,0.089-0.156,0.193-0.234,0.29c-0.076,0.094-0.161,0.182-0.229,0.283c-0.08,0.119-0.139,0.25-0.205,0.378
		c-0.052,0.1-0.114,0.193-0.158,0.297c-0.064,0.153-0.104,0.316-0.149,0.478c-0.025,0.09-0.063,0.174-0.081,0.266
		c-0.053,0.258-0.081,0.525-0.081,0.798c0,0.297,0.038,0.585,0.1,0.864c0.02,0.091,0.055,0.175,0.082,0.263
		c0.054,0.184,0.113,0.365,0.192,0.536c0.045,0.097,0.099,0.186,0.151,0.279c0.085,0.151,0.174,0.297,0.276,0.435
		c0.066,0.089,0.137,0.171,0.21,0.254c0.111,0.126,0.228,0.244,0.354,0.355c0.047,0.041,0.083,0.093,0.132,0.132
		c-0.426,0.253-0.729,0.678-0.822,1.192c-0.137,0.747,0.202,1.476,0.863,1.855c2.686,1.548,4.623,3.384,6.05,5.431l0.26,0.402
		c0.028,0.042,0.053,0.086,0.081,0.128c0.84,1.306,1.519,2.729,2.073,4.348l0.18,0.525l0.005,0.001
		C47.177,34.276,47.58,37.891,47.992,41.596z M51.929,28.67l-0.249,1.068c-0.037,0.159-0.143,0.244-0.201,0.281
		c-0.06,0.037-0.182,0.092-0.341,0.057l-3.489-0.813c-0.002-0.005-0.004-0.009-0.005-0.013c-0.395-1.079-0.858-2.134-1.422-3.151
		l2.795-2.993c0.11-0.119,0.244-0.141,0.313-0.144c0.07,0.005,0.206,0.01,0.324,0.122l0.802,0.747
		c0.182,0.17,0.191,0.457,0.021,0.639l-2.605,2.792l3.719,0.865C51.833,28.185,51.985,28.428,51.929,28.67z"/>
	<path d="M43.386,44.13l-2.503,1.669c-1.7-0.897-3.228-1.843-4.584-2.837h3.641c0.553,0,1-0.447,1-1s-0.447-1-1-1h-6
		c-0.022,0-0.04,0.011-0.062,0.012c-2.598-2.42-4.278-5.082-5.016-7.964c-0.379-1.482-0.467-2.902-0.388-4.212
		c0.012-0.008,0.027-0.009,0.039-0.017c1.757-1.228,3.807-1.224,6.099,0.005c0.81,0.434,1.631,1.019,2.44,1.721
		c-0.071,0.139-0.111,0.293-0.111,0.453v4c0,0.553,0.447,1,1,1s1-0.447,1-1v-2.56c0.578,0.658,1.141,1.367,1.675,2.132
		c0.194,0.278,0.505,0.428,0.821,0.428c0.197,0,0.396-0.059,0.571-0.18c0.453-0.316,0.563-0.939,0.248-1.393
		c-0.697-0.998-1.442-1.918-2.215-2.754l2.499-1.874c0.442-0.331,0.532-0.958,0.2-1.399c-0.331-0.443-0.959-0.531-1.399-0.2
		l-2.74,2.055c-1.001-0.898-2.027-1.647-3.045-2.193c-2.386-1.28-4.682-1.485-6.735-0.654c0.652-2.89,1.925-4.813,1.946-4.845
		c0.31-0.456,0.192-1.078-0.264-1.389c-0.454-0.312-1.076-0.195-1.388,0.26c-0.16,0.235-3.82,5.709-2.296,12.607
		c-0.156,0.038-0.306,0.1-0.433,0.214c-4.425,3.971-4.586,11.064-0.43,15.982l-0.016,2.756c-0.003,0.553,0.442,1.003,0.994,1.006
		c0.002,0,0.004,0,0.006,0c0.55,0,0.997-0.444,1-0.994l0.011-2.006h1.989c0.553,0,1-0.447,1-1s-0.447-1-1-1h-2.4
		c-3.403-3.972-3.444-9.622-0.135-12.938c1.033,2.828,2.88,5.435,5.535,7.801v5.137c0,0.553,0.447,1,1,1s1-0.447,1-1v-3.513
		c1.478,1.099,3.144,2.14,5,3.121v2.393c0,0.553,0.447,1,1,1s1-0.447,1-1v-2.465l2.555-1.703c0.46-0.307,0.584-0.927,0.277-1.387
		C44.467,43.947,43.847,43.824,43.386,44.13z"/>
</g>
<g>
</g>
<g>
</g>
<g>
</g>
<g>
</g>
<g>
</g>
<g>
</g>
<g>
</g>
<g>
</g>
<g>
</g>
<g>
</g>
<g>
</g>
<g>
</g>
<g>
</g>
<g>
</g>
<g>
</g>
</svg>
