<?xml version="1.0" encoding="iso-8859-1"?>
<!-- Generator: Adobe Illustrator 19.0.0, SVG Export Plug-In . SVG Version: 6.00 Build 0)  -->
<svg version="1.1" id="Capa_1" xmlns="http://www.w3.org/2000/svg" xmlns:xlink="http://www.w3.org/1999/xlink" x="0px" y="0px"
	 viewBox="0 0 480.2 480.2" style="enable-background:new 0 0 480.2 480.2;" xml:space="preserve">
<g>
	<g>
		<path d="M250,399.8c-5.8,0-10.4,4.7-10.4,10.4c0,5.7,4.7,10.4,10.4,10.4c5.8,0,10.4-4.7,10.4-10.4
			C260.4,404.4,255.7,399.8,250,399.8z"/>
	</g>
</g>
<g>
	<g>
		<path d="M424.8,416H297.7c0-1.8-0.1-3.5-0.3-5.2c28.9-9.6,54.2-27.6,72.8-51.7c20.4-26.4,31.5-58.9,31.4-92.3
			c0-78.1-59.3-142.6-135.3-150.7l37.5-37.5c3.1-3.1,3.1-8.2,0-11.3l-3.6-3.6l23.3-23.2c3.1-3.1,3.1-8.2,0-11.3L297,2.4
			c-1.5-1.5-3.5-2.4-5.7-2.4c-2.1,0-4.2,0.9-5.7,2.4l-23.3,23.3l-3.5-3.5c-1.5-1.5-3.5-2.3-5.7-2.3c-2.1,0-4.2,0.9-5.7,2.3
			L135.1,134.7c-3.1,3.1-3.1,8.2,0,11.3l45,45c3.1,3.1,8.2,3.1,11.3,0l25.6-25.7l34.1-34.1c74.2,0.6,134.4,61.2,134.4,135.6
			c-0.1,58.3-37.4,110-92.6,128.7c-11.4-23.7-39.9-33.7-63.7-22.3c-9.8,4.7-17.7,12.6-22.3,22.4c-52.4-17.6-89-65.3-92.4-120.5h66.8
			c4.4,0,8-3.6,8-8c0-4.4-3.6-8-8-8h-29.8c0.4-1,0.6-2,0.7-3.1c0-4.4-3.6-7.9-7.9-7.9c0,0,0,0-0.1,0H68.5c-4.4,0-8,3.5-8,7.9
			c0,0,0,0,0,0.1c0,1.1,0.2,2.1,0.7,3.1H31.4c-4.4,0-8,3.6-8,8c0,4.4,3.6,8,8,8h67.2c1.5,30.7,12.4,60.1,31.2,84.3
			c18.6,24,43.9,41.9,72.7,51.5c-0.2,1.7-0.3,3.5-0.3,5.2H75.1c-17.7,0-32,14.3-32,32s14.3,32,32,32h349.7c17.7,0,32-14.3,32-32
			S442.5,416,424.8,416z M291.3,19.5l15.2,15.2l-17.6,17.6l-15.2-15.2L291.3,19.5z M185.8,174l-33.7-33.7l14.3-14.3l33.7,33.6
			L185.8,174z M211.4,148.4l-33.6-33.6l75.5-75.5l3.3,3.3c0.1,0.1,0.1,0.2,0.2,0.2c0.1,0,0.2,0.2,0.3,0.2l26.3,26.3l3.5,3.6
			L211.4,148.4z M424.8,464H75.1c-8.8,0-16-7.2-16-16s7.2-16,16-16H211c4.4,0,8-3.5,8-7.9c0-0.6-0.1-1.2-0.2-1.8
			c-0.4-2-0.6-4.1-0.6-6.1c0.1-17.5,14.3-31.7,31.8-31.7c17.5,0.1,31.7,14.3,31.7,31.8c0,2.1-0.2,4.1-0.6,6.1
			c-0.9,4.3,1.9,8.5,6.2,9.4c0.6,0.1,1.1,0.2,1.7,0.2h135.9c8.8,0,16,7.2,16,16S433.6,464,424.8,464z"/>
	</g>
</g>
<g>
</g>
<g>
</g>
<g>
</g>
<g>
</g>
<g>
</g>
<g>
</g>
<g>
</g>
<g>
</g>
<g>
</g>
<g>
</g>
<g>
</g>
<g>
</g>
<g>
</g>
<g>
</g>
<g>
</g>
</svg>
