<?xml version="1.0" encoding="iso-8859-1"?>
<!-- Generator: Adobe Illustrator 19.0.0, SVG Export Plug-In . SVG Version: 6.00 Build 0)  -->
<svg version="1.1" id="Capa_1" xmlns="http://www.w3.org/2000/svg" xmlns:xlink="http://www.w3.org/1999/xlink" x="0px" y="0px"
	 viewBox="0 0 512 512" style="enable-background:new 0 0 512 512;" xml:space="preserve">
<g>
	<g>
		<path d="M110.107,98.612c-5.945,0-10.982,1.885-14.714,3.95c-3.753-2.053-8.785-3.95-14.563-3.95
			c-14.35,0-25.59,12.083-25.59,27.508c0,27.395,31.757,45.671,35.378,47.665c1.501,0.827,3.162,1.24,4.823,1.24
			c1.653,0,3.307-0.409,4.802-1.229c3.629-1.987,35.454-20.205,35.454-47.676C135.698,110.695,124.458,98.612,110.107,98.612z
			 M95.456,153.215c-8.076-5.626-20.215-16.373-20.215-27.094c0-4.877,2.88-7.508,5.59-7.508c3.237,0,6.722,2.483,7.762,3.414
			c1.914,1.896,4.353,2.962,7.036,2.917c2.692-0.049,5.075-1.155,6.918-3.113c1.019-0.945,4.187-3.218,7.562-3.218
			c2.71,0,5.59,2.631,5.59,7.508C115.698,136.876,103.534,147.611,95.456,153.215z"/>
	</g>
</g>
<g>
	<g>
		<path d="M294.529,401.188c-5.945,0-10.982,1.885-14.714,3.95c-3.753-2.053-8.785-3.95-14.563-3.95
			c-14.35,0-25.59,12.083-25.59,27.508c0,27.396,31.757,45.671,35.378,47.665c1.502,0.827,3.162,1.24,4.823,1.24
			c1.653,0,3.306-0.41,4.802-1.229c3.629-1.987,35.454-20.205,35.454-47.676C320.12,413.271,308.88,401.188,294.529,401.188z
			 M279.859,455.802c-8.071-5.59-20.197-16.299-20.197-27.106c0-4.877,2.88-7.508,5.59-7.508c3.237,0,6.722,2.483,7.762,3.413
			c1.914,1.896,4.331,2.959,7.037,2.917c2.692-0.048,5.075-1.155,6.918-3.113c1.019-0.945,4.186-3.217,7.561-3.217
			c2.71,0,5.59,2.631,5.59,7.508C300.12,439.459,287.937,450.201,279.859,455.802z"/>
	</g>
</g>
<g>
	<g>
		<path d="M224.272,207.601c-15.608,0-28.831,7.218-36.476,12.555c-7.51-5.383-20.549-12.555-36.708-12.555
			c-27.459,0-48.969,23.616-48.969,53.764c0,61.061,77.528,104.211,80.828,106.018c1.496,0.819,3.149,1.229,4.802,1.229
			c1.661,0,3.322-0.413,4.824-1.24c3.293-1.814,80.668-45.114,80.668-106.007C273.242,231.217,251.732,207.601,224.272,207.601z
			 M187.737,346.972c-15.9-9.871-65.617-44.065-65.617-85.606c0-19.248,12.454-33.764,28.969-33.764
			c16.791,0,29.384,12.309,29.473,12.398c3.813,3.865,10.044,3.953,14,0.233c0.134-0.126,13.619-12.631,29.71-12.631
			c16.515,0,28.969,14.515,28.969,33.764C253.24,302.791,203.605,337.073,187.737,346.972z"/>
	</g>
</g>
<g>
	<g>
		<path d="M454.701,384.11c-0.13-0.64-0.32-1.27-0.57-1.87c-0.25-0.61-0.56-1.19-0.92-1.73c-0.36-0.55-0.78-1.06-1.24-1.52
			c-0.46-0.46-0.97-0.88-1.52-1.24c-0.54-0.36-1.12-0.67-1.73-0.92c-0.6-0.25-1.23-0.44-1.87-0.57c-1.29-0.26-2.62-0.26-3.91,0
			c-0.63,0.13-1.26,0.32-1.87,0.57c-0.6,0.25-1.18,0.56-1.72,0.92c-0.55,0.36-1.06,0.78-1.52,1.24c-0.46,0.46-0.88,0.97-1.25,1.52
			c-0.36,0.54-0.67,1.12-0.92,1.73c-0.25,0.6-0.44,1.23-0.57,1.87s-0.19,1.3-0.19,1.95c0,0.65,0.06,1.31,0.19,1.96
			c0.13,0.63,0.32,1.26,0.57,1.87c0.25,0.6,0.56,1.18,0.92,1.72c0.37,0.55,0.79,1.06,1.25,1.52c0.46,0.47,0.97,0.88,1.52,1.25
			c0.54,0.36,1.12,0.67,1.72,0.92c0.61,0.25,1.24,0.44,1.87,0.57c0.65,0.13,1.31,0.19,1.96,0.19c0.65,0,1.31-0.06,1.95-0.19
			c0.64-0.13,1.27-0.32,1.87-0.57c0.61-0.25,1.19-0.56,1.73-0.92c0.55-0.37,1.06-0.78,1.52-1.25c0.46-0.46,0.88-0.97,1.24-1.52
			c0.36-0.54,0.67-1.12,0.92-1.72c0.25-0.61,0.44-1.24,0.57-1.87c0.13-0.65,0.2-1.31,0.2-1.96
			C454.901,385.41,454.831,384.75,454.701,384.11z"/>
	</g>
</g>
<g>
	<g>
		<path d="M385.411,92.39c-0.13-0.64-0.32-1.27-0.57-1.87c-0.25-0.6-0.56-1.19-0.92-1.73c-0.36-0.55-0.78-1.06-1.24-1.52
			c-0.46-0.46-0.97-0.88-1.52-1.24c-0.54-0.36-1.12-0.67-1.73-0.92c-0.6-0.25-1.23-0.44-1.87-0.57c-1.29-0.26-2.62-0.26-3.91,0
			c-0.63,0.13-1.26,0.32-1.87,0.57c-0.6,0.25-1.18,0.56-1.72,0.92c-0.55,0.36-1.06,0.78-1.52,1.24c-0.46,0.46-0.88,0.97-1.25,1.52
			c-0.36,0.54-0.67,1.13-0.92,1.73c-0.25,0.6-0.44,1.23-0.57,1.87c-0.13,0.64-0.19,1.3-0.19,1.95c0,2.64,1.07,5.21,2.93,7.07
			c0.46,0.46,0.97,0.88,1.52,1.25c0.54,0.36,1.12,0.67,1.72,0.92c0.61,0.25,1.24,0.44,1.87,0.57c0.65,0.13,1.31,0.19,1.96,0.19
			c0.65,0,1.31-0.06,1.95-0.19c0.64-0.13,1.27-0.32,1.87-0.57c0.61-0.25,1.19-0.56,1.73-0.92c0.55-0.37,1.06-0.79,1.52-1.25
			c1.86-1.86,2.93-4.43,2.93-7.07C385.611,93.69,385.541,93.03,385.411,92.39z"/>
	</g>
</g>
<g>
	<g>
		<path d="M478.935,0h-328.75c-5.523,0-10,4.477-10,10v22.107h-48.56c-5.523,0-10,4.477-10,10v22.107h-48.56
			c-5.523,0-10,4.477-10,10V502c0,5.523,4.477,10,10,10h309.229c5.523,0,10-4.477,10-10v-22.107h58.32c5.523,0,10-4.477,10-10
			v-22.107h58.32c5.523,0,10-4.477,10-10V10C488.935,4.477,484.458,0,478.935,0z M332.294,492H43.065V84.214h289.229V492z
			 M385.609,459.893V132.402c0-5.523-4.477-10-10-10s-10,4.477-10,10v327.491h-13.314V74.214c0-5.523-4.477-10-10-10h-240.67V52.107
			h298.989v407.786H385.609z M468.937,427.786h-0.001h-48.32V42.107c0-5.523-4.477-10-10-10H160.187V20h274.712v328.004
			c0,5.523,4.477,10,10,10s10-4.477,10-10V20h14.038V427.786z"/>
	</g>
</g>
<g>
</g>
<g>
</g>
<g>
</g>
<g>
</g>
<g>
</g>
<g>
</g>
<g>
</g>
<g>
</g>
<g>
</g>
<g>
</g>
<g>
</g>
<g>
</g>
<g>
</g>
<g>
</g>
<g>
</g>
</svg>
