<?xml version="1.0" encoding="iso-8859-1"?>
<!-- Generator: Adobe Illustrator 18.0.0, SVG Export Plug-In . SVG Version: 6.00 Build 0)  -->
<!DOCTYPE svg PUBLIC "-//W3C//DTD SVG 1.1//EN" "http://www.w3.org/Graphics/SVG/1.1/DTD/svg11.dtd">
<svg version="1.1" id="Capa_1" xmlns="http://www.w3.org/2000/svg" xmlns:xlink="http://www.w3.org/1999/xlink" x="0px" y="0px"
	 viewBox="0 0 464 464" style="enable-background:new 0 0 464 464;" xml:space="preserve">
<g>
	<path d="M147.254,187.491c-5.523,0-10,4.477-10,10v16.953c0,5.523,4.477,10,10,10s10-4.477,10-10v-16.953
		C157.254,191.968,152.777,187.491,147.254,187.491z"/>
	<path d="M265.355,187.491c-5.523,0-10,4.477-10,10v16.953c0,5.523,4.477,10,10,10s10-4.477,10-10v-16.953
		C275.355,191.968,270.878,187.491,265.355,187.491z"/>
	<path d="M421.045,167.37c0-23.567-15.038-43.683-36.021-51.269c-1.696-34.553-15.003-63.054-38.752-82.76
		c-22.749-18.876-53.964-28.974-90.345-29.261C246.931,1.393,237.53,0,227.922,0h-43.238c-21.045,0-41.117,6.609-58.044,19.113
		C111.386,30.38,99.973,45.503,93.335,63.1c-1.328,0.244-2.656,0.482-3.984,0.735C74.36,66.693,63.286,79.388,62.422,94.707
		c-1.088,19.278-1.686,38.797-1.778,58.014c-0.029,5.959,1.515,11.685,4.378,16.701L45.858,270.147
		c-9.126,47.967,3.495,97.05,34.627,134.665C111.618,442.427,157.477,464,206.305,464c48.828,0,94.687-21.573,125.819-59.188
		c31.132-37.615,43.753-86.698,34.627-134.665l-9.332-49.048c3.004,0.508,6.057,0.771,9.127,0.771
		C396.597,221.87,421.045,197.422,421.045,167.37z M364.788,112.903c-4.665,0.148-9.247,0.888-13.659,2.187
		c-0.26-6.807-0.56-13.611-0.941-20.383c-0.864-15.319-11.938-28.014-26.93-30.871c-1.328-0.253-2.657-0.491-3.986-0.736
		c-4.637-12.291-11.608-23.368-20.59-32.772c13.347,4.15,25.079,10.322,34.82,18.405C352.132,64.191,362.625,85.747,364.788,112.903
		z M184.684,20h43.238c28.514,0,53.923,15.22,67.498,39.177c-59.25-8.571-118.983-8.571-178.234,0
		C130.761,35.22,156.169,20,184.684,20z M82.39,95.833c0.346-6.137,4.749-11.216,10.706-12.351
		c37.56-7.159,75.384-10.738,113.208-10.738c37.824,0,75.649,3.579,113.209,10.738c5.958,1.135,10.36,6.214,10.706,12.351
		c1.068,18.939,1.656,38.111,1.746,56.984c0.02,4.081-1.787,7.899-4.958,10.474c-3.12,2.534-7.15,3.507-11.052,2.671
		c-72.759-15.597-146.542-15.597-219.3,0c-3.903,0.838-7.932-0.136-11.053-2.671c-3.17-2.575-4.977-6.393-4.958-10.474
		C80.734,133.941,81.322,114.769,82.39,95.833z M123.718,285.427c9.908-10.231,20.152-20.811,35.393-27.086
		c11.378-4.685,21.214-4.708,29.234-0.067c6.076,3.516,9.168,10.906,7.522,17.973v0c-4.414,18.944-14.142,31.257-28.915,36.595
		c-14.962,5.408-31.911,2.894-43.495-0.167c-7.398-1.955-14.799-4.704-21.709-8.011
		C109.993,299.599,116.918,292.448,123.718,285.427z M187.305,235.87c0-10.477,8.523-19,19-19s19,8.523,19,19
		c0,0.178-0.016,0.353-0.02,0.529c-3.863,1.029-7.19,2.453-9.957,3.957c-3.418,1.858-6.443,4.215-9.018,6.945
		c-2.308-2.45-4.957-4.607-7.947-6.338c-3.024-1.75-6.711-3.411-11.037-4.567C187.321,236.221,187.305,236.047,187.305,235.87z
		 M206.306,304.216c2.942,5.057,6.245,9.302,9.727,12.849c-3.038,1.283-6.331,1.96-9.728,1.96c-3.399,0-6.694-0.677-9.734-1.962
		C200.055,313.515,203.362,309.276,206.306,304.216z M216.745,276.263c-1.696-7.271,1.648-14.81,8.132-18.334
		c3.828-2.08,8.061-3.12,12.67-3.12c4.904,0,10.233,1.177,15.95,3.531c15.24,6.275,25.485,16.855,35.393,27.086
		c6.799,7.021,13.725,14.173,21.969,19.237c-6.91,3.308-14.308,6.055-21.707,8.011c-11.582,3.061-28.529,5.576-43.494,0.17
		C230.89,307.507,221.161,295.2,216.745,276.263z M286.386,255.358c-7.053-5.886-15.205-11.366-25.272-15.511
		c-5.689-2.342-10.964-3.743-15.821-4.451c-0.256-21.286-17.642-38.526-38.988-38.526c-21.344,0-38.729,17.237-38.988,38.521
		c-4.863,0.71-10.136,2.114-15.822,4.455c-10.067,4.145-18.219,9.625-25.272,15.511c-11.496-12.606-17.918-28.995-17.918-46.417
		v-24.959c65.07-12.946,130.93-12.946,196,0v24.959C304.305,226.362,297.882,242.752,286.386,255.358z M316.717,392.06
		C289.396,425.069,249.153,444,206.304,444c-42.848,0-83.091-18.931-110.412-51.94s-38.396-76.082-30.387-118.175l17.054-89.633
		c1.868,0.683,3.789,1.199,5.746,1.534v23.153c0,22.609,8.386,43.868,23.384,60.164c-0.787,0.809-1.568,1.614-2.339,2.409
		c-12.48,12.888-20.113,20.18-31.851,20.18c-4.295,0-8.111,2.743-9.479,6.815c-1.368,4.072,0.017,8.562,3.44,11.156
		c19.535,14.8,48.735,26.307,75.83,26.307c9.218,0,18.193-1.332,26.459-4.32c1.621-0.586,3.296-1.267,5.002-2.055
		c7.852,6.107,17.444,9.429,27.552,9.429c10.109,0,19.702-3.322,27.555-9.431c1.707,0.788,3.383,1.473,5.005,2.059
		c8.267,2.987,17.235,4.318,26.453,4.317c27.094-0.001,56.297-11.509,75.832-26.307c3.424-2.594,4.809-7.084,3.44-11.156
		c-1.368-4.072-5.184-6.815-9.479-6.815c-11.737,0-19.37-7.292-31.851-20.18c-0.77-0.796-1.551-1.6-2.338-2.409
		c14.998-16.296,23.384-37.555,23.384-60.164v-23.16c1.955-0.335,3.878-0.841,5.745-1.525l17.054,89.63
		C355.112,315.979,344.037,359.052,316.717,392.06z M347.586,169.422c2.863-5.016,4.407-10.742,4.378-16.701
		c-0.026-5.487-0.105-11.002-0.214-16.526c4.594-2.184,9.625-3.325,14.795-3.325c19.023,0,34.5,15.477,34.5,34.5
		s-15.477,34.5-34.5,34.5c-4.584,0-9.106-0.911-13.29-2.652L347.586,169.422z"/>
	<path d="M314.319,112.988c-5.515,0.295-9.747,5.005-9.451,10.52l1.501,28.027c0.286,5.333,4.699,9.465,9.977,9.465
		c0.18,0,0.362-0.005,0.543-0.015c5.515-0.295,9.747-5.005,9.451-10.52l-1.501-28.027
		C324.544,116.923,319.818,112.691,314.319,112.988z"/>
	<path d="M303.687,101.465c0.286,5.333,4.7,9.465,9.977,9.465c0.18,0,0.362-0.005,0.544-0.015c5.515-0.296,9.746-5.006,9.451-10.521
		l-0.318-5.929c-0.296-5.515-5-9.748-10.521-9.45c-5.515,0.296-9.746,5.006-9.451,10.521L303.687,101.465z"/>
</g>
<g>
</g>
<g>
</g>
<g>
</g>
<g>
</g>
<g>
</g>
<g>
</g>
<g>
</g>
<g>
</g>
<g>
</g>
<g>
</g>
<g>
</g>
<g>
</g>
<g>
</g>
<g>
</g>
<g>
</g>
</svg>
